<svg xmlns="http://www.w3.org/2000/svg" width="31.328" height="31.96" viewBox="0 0 31.328 31.96">
  <g id="Group_3314" data-name="Group 3314" transform="translate(0.05 0.019)">
    <path id="Path_232" data-name="Path 232" d="M287.448,226.347a18.8,18.8,0,0,0-.276-3.247H272.1v6.153h8.631a7.4,7.4,0,0,1-3.194,4.856V238.1h5.149a15.606,15.606,0,0,0,4.762-11.755Z" transform="translate(-256.17 -210.018)" fill="#4285f4"/>
    <path id="Path_233" data-name="Path 233" d="M43.18,337.218a15.3,15.3,0,0,0,10.592-3.858l-5.149-3.993A9.692,9.692,0,0,1,34.214,324.3H28.9v4.116A15.982,15.982,0,0,0,43.18,337.218Z" transform="translate(-27.25 -305.276)" fill="#34a853"/>
    <path id="Path_234" data-name="Path 234" d="M6.958,160.234a9.571,9.571,0,0,1,0-6.118V150H1.65a15.993,15.993,0,0,0,0,14.35Z" transform="translate(0 -141.21)" fill="#fbbc04"/>
    <path id="Path_235" data-name="Path 235" d="M43.18,6.306a8.684,8.684,0,0,1,6.13,2.4L53.872,4.14A15.358,15.358,0,0,0,43.18-.017,15.976,15.976,0,0,0,28.9,8.79l5.308,4.116A9.558,9.558,0,0,1,43.18,6.306Z" transform="translate(-27.25 0)" fill="#ea4335"/>
  </g>
</svg>
