<svg id="Document_History_Tracking_64" data-name="Document History Tracking 64" xmlns="http://www.w3.org/2000/svg" width="64" height="64" viewBox="0 0 64 64">
  <rect id="Rectangle_383" data-name="Rectangle 383" width="64" height="64" fill="#fff" opacity="0"/>
  <path id="Path_378" data-name="Path 378" d="M38.74,28.74,42,32l-3.26,3.26Z" fill="#fff"/>
  <rect id="Rectangle_384" data-name="Rectangle 384" width="10" height="10" transform="translate(8 27)" fill="#fff"/>
  <rect id="Rectangle_385" data-name="Rectangle 385" width="10" height="10" transform="translate(46 27)" fill="#fff"/>
  <rect id="Rectangle_386" data-name="Rectangle 386" width="4" height="4" transform="translate(11 30)" fill="#3d9155"/>
  <path id="Path_379" data-name="Path 379" d="M37,45l-3-3v2.5H33A3.5,3.5,0,0,1,29.5,41V36a4.46,4.46,0,0,0-1.71-3.5H38.08V37l5-5-5-5v4.5H22.79A4.46,4.46,0,0,0,24.5,28V23A3.5,3.5,0,0,1,28,19.5h1V22l3-3-3-3v2.5H28A4.51,4.51,0,0,0,23.5,23v5A3.5,3.5,0,0,1,20,31.5H19V26H7V38H19V32.5h6A3.5,3.5,0,0,1,28.5,36v5A4.51,4.51,0,0,0,33,45.5h1V48Zm2.08-15.59L41.66,32l-2.58,2.59ZM17,36H9V28h8Z" fill="#3d9155"/>
  <path id="Path_380" data-name="Path 380" d="M40.71,45,43,42.71V42h-.71L40,44.29,37.71,42H37v.71L39.29,45,37,47.29V48h.71L40,45.71,42.29,48H43v-.71Z" fill="#3d9155"/>
  <path id="Path_381" data-name="Path 381" d="M45,26V38H57V26ZM55,36H47V28h8Z" fill="#3d9155"/>
  <rect id="Rectangle_387" data-name="Rectangle 387" width="4" height="4" transform="translate(49 30)" fill="#3d9155"/>
  <path id="Path_382" data-name="Path 382" d="M34.29,19,32,21.29V22h.71L35,19.71,37.29,22H38v-.71L35.71,19,38,16.71V16h-.71L35,18.29,32.71,16H32v.71Z" fill="#3d9155"/>
</svg>
