<svg id="Verifiable_Unique_Ownership_64" data-name="Verifiable Unique Ownership 64" xmlns="http://www.w3.org/2000/svg" width="64" height="64" viewBox="0 0 64 64">
  <rect id="Rectangle_469" data-name="Rectangle 469" width="64" height="64" fill="#fff" opacity="0"/>
  <path id="Path_415" data-name="Path 415" d="M50.13,46.13a23,23,0,1,0-4,4L56,60l4-4Z" fill="#fff"/>
  <path id="Path_416" data-name="Path 416" d="M11,32v2h.1a18.86,18.86,0,0,1-.1-2Zm0-2v2a18.861,18.861,0,0,1,.1-2Z" fill="#3d9155"/>
  <path id="Path_417" data-name="Path 417" d="M32,21H26v6h6Zm-1,5H27V22h4Z" fill="#3d9155"/>
  <path id="Path_418" data-name="Path 418" d="M40,21H34v6h6Zm-1,5H35V22h4Z" fill="#3d9155"/>
  <rect id="Rectangle_470" data-name="Rectangle 470" width="5.66" height="5.66" transform="translate(40.998 24.001) rotate(-45)" fill="#3d9155"/>
  <path id="Path_419" data-name="Path 419" d="M24,27V21H18v6Zm-5-5h4v4H19Z" fill="#3d9155"/>
  <path id="Path_420" data-name="Path 420" d="M26,35h6V29H26Zm1-5h4v4H27Z" fill="#3d9155"/>
  <rect id="Rectangle_471" data-name="Rectangle 471" width="5.66" height="5.66" transform="translate(32.998 32.004) rotate(-45)" fill="#3d9155"/>
  <path id="Path_421" data-name="Path 421" d="M42,35h6V29H42Zm1-5h4v4H43Z" fill="#3d9155"/>
  <rect id="Rectangle_472" data-name="Rectangle 472" width="5.66" height="5.66" transform="translate(16.995 31.998) rotate(-45)" fill="#3d9155"/>
  <rect id="Rectangle_473" data-name="Rectangle 473" width="5.66" height="5.66" transform="translate(24.998 39.998) rotate(-45)" fill="#3d9155"/>
  <path id="Path_422" data-name="Path 422" d="M34,43h6V37H34Zm1-5h4v4H35Z" fill="#3d9155"/>
  <path id="Path_423" data-name="Path 423" d="M48,37H42v6h6Zm-1,5H43V38h4Z" fill="#3d9155"/>
  <path id="Path_424" data-name="Path 424" d="M18,43h6V37H18Zm1-5h4v4H19Z" fill="#3d9155"/>
  <path id="Path_425" data-name="Path 425" d="M50.13,46.13a23,23,0,1,0-4,4L56,60l4-4ZM49,47.83,57.17,56,56,57.17,47.83,49Zm2-6.91V38h1.12A19.78,19.78,0,0,1,51,40.92ZM53,32a18.86,18.86,0,0,1-.1,2H51V30h1.9A18.858,18.858,0,0,1,53,32Zm-2-8.92A19.78,19.78,0,0,1,52.12,26H51ZM13.54,22H15v4H11.88a20.08,20.08,0,0,1,1.66-4ZM11,30h4v4H11Zm.88,8H15v4H13.54a20.08,20.08,0,0,1-1.66-4Zm2.25,5H16V37H11.61a16.44,16.44,0,0,1-.39-2H16V29H11.22a16.441,16.441,0,0,1,.39-2H16V21H14.13A21,21,0,0,1,50,21.21V27h2.39a16.441,16.441,0,0,1,.39,2H50v6h2.78a16.441,16.441,0,0,1-.39,2H50v5.79A21,21,0,0,1,14.13,43Z" fill="#3d9155"/>
</svg>
