<svg xmlns="http://www.w3.org/2000/svg" width="21.936" height="18.192" viewBox="0 0 21.936 18.192"><path d="M8.7-18.416A16.525,16.525,0,0,0,6.264-20.5c-.24-.176-.464-.32-.7-.48L9.1-24.512,8.52-25.1l-3.712,3.7a11.334,11.334,0,0,0-1.44-.64,9.378,9.378,0,0,0-3.36-.608,9.133,9.133,0,0,0-2.848.448,11.315,11.315,0,0,0-2.624,1.28,28.328,28.328,0,0,0-5.232,4.64l-.272.288.272.288.336.336a29.77,29.77,0,0,0,4.544,4.192c.08.048.16.112.256.16L-9.08-7.5l.576.592,3.68-3.664a8.441,8.441,0,0,0,1.664.72,9.884,9.884,0,0,0,3.168.512A9.271,9.271,0,0,0,3.32-9.968,11.841,11.841,0,0,0,6.168-11.5a28.79,28.79,0,0,0,4.352-3.952l.192-.192.256-.272-.24-.288C9.976-17.088,9.336-17.792,8.7-18.416ZM-5.352-11.872a29.364,29.364,0,0,1-4.4-4.064L-9.816-16a26.553,26.553,0,0,1,4.8-4.224,8.912,8.912,0,0,1,5.024-1.6,8.546,8.546,0,0,1,3.072.56,7.611,7.611,0,0,1,1.12.48L2.072-18.656a3.322,3.322,0,0,0-2.064-.7,3.338,3.338,0,0,0-2.384.976A3.378,3.378,0,0,0-3.352-16a3.422,3.422,0,0,0,.7,2.064l-2.32,2.32Zm11.04-.3a9.745,9.745,0,0,1-5.68,2A8.955,8.955,0,0,1-4.216-11.2l2.16-2.144a3.422,3.422,0,0,0,2.064.7,3.354,3.354,0,0,0,2.384-.992A3.341,3.341,0,0,0,3.368-16a3.433,3.433,0,0,0-.7-2.08l2.288-2.288c.288.176.56.352.832.544a22.38,22.38,0,0,1,4.064,3.872A28.533,28.533,0,0,1,5.688-12.176ZM-2.52-16a2.463,2.463,0,0,1,.736-1.792,2.517,2.517,0,0,1,1.792-.736,2.514,2.514,0,0,1,1.472.464l-3.536,3.536A2.55,2.55,0,0,1-2.52-16Zm5.056,0A2.453,2.453,0,0,1,1.8-14.224a2.532,2.532,0,0,1-1.792.752,2.529,2.529,0,0,1-1.472-.48l3.536-3.52A2.479,2.479,0,0,1,2.536-16Z" transform="translate(10.968 25.104)" fill="#fff"/></svg>