<svg xmlns="http://www.w3.org/2000/svg" viewBox="0 0 64 64"><defs><style>.a,.b{fill:#fff;}.b{opacity:0;}.c{fill:#3d9155;}</style></defs><title>Verifiable Unique Ownership 64</title><path class="a" d="M50.14,46.14a23,23,0,1,0-4,4L56,60l4-4Z"/><rect class="b" width="64" height="64"/><path class="c" d="M31,22H26v5h5Zm-1,4H27V23h3Z"/><path class="c" d="M39,22H34v5h5Zm-1,4H35V23h3Z"/><path class="c" d="M31,14H26v5h5Zm-1,4H27V15h3Z"/><path class="c" d="M39,14H34v5h5Zm-1,4H35V15h3Z"/><path class="c" d="M31,30H26v5h5Zm-1,4H27V31h3Z"/><path class="c" d="M23,22H18v5h5Zm-1,4H19V23h3Z"/><path class="c" d="M47,30H42v5h5Zm-1,4H43V31h3Z"/><path class="c" d="M47,22H42v5h5Zm-1,4H43V23h3Z"/><path class="c" d="M23,30H18v5h5Zm-1,4H19V31h3Z"/><path class="c" d="M31,46H26v5h5Zm-1,4H27V47h3Z"/><path class="c" d="M34,51h5V46H34Zm1-4h3v3H35Z"/><path class="c" d="M31,38H26v5h5Zm-1,4H27V39h3Z"/><path class="c" d="M34,43h5V38H34Zm1-4h3v3H35Z"/><path class="c" d="M23,38H18v5h5Zm-1,4H19V39h3Z"/><path class="c" d="M47,38H42v5h5Zm-1,4H43V39h3Z"/><path class="c" d="M50.14,46.14a23,23,0,1,0-4,4L56,60l4-4ZM19,48.46V47h3v3h-.76A21.66,21.66,0,0,1,19,48.46ZM18,46v1.61A21.07,21.07,0,0,1,14.15,43H15V38H11.88a21.31,21.31,0,0,1-.64-3H15V30H11.1a21.13,21.13,0,0,1,.53-3H15V22H13.54A21.12,21.12,0,0,1,18,16.39V19h5V14H21.24a20.8,20.8,0,0,1,21.52,0H42v5h5V17.33A20.88,20.88,0,0,1,50.46,22H50v5h2.37a21.13,21.13,0,0,1,.53,3H50v5h2.76a21.31,21.31,0,0,1-.64,3H50v4.76a21.15,21.15,0,0,1-3,3.91V46H42v4.46a20.83,20.83,0,0,1-19,.48V46ZM13.06,23H14v3H11.88A19.48,19.48,0,0,1,13.06,23ZM11,32c0-.34,0-.67.05-1H14v3H11.1C11,33.34,11,32.68,11,32Zm2.54,10a19.59,19.59,0,0,1-1.31-3H14v3ZM19,15.54l.72-.54H22v3H19Zm27,.85V18H43V15h1.28A20.89,20.89,0,0,1,46,16.39Zm5,6.72A20.58,20.58,0,0,1,52.12,26H51ZM53,32c0,.68,0,1.34-.1,2H51V31h2C53,31.33,53,31.66,53,32ZM46,47.61a21.28,21.28,0,0,1-3,2.24V47h3ZM51.77,39A19.2,19.2,0,0,1,51,40.89V39ZM49,47.83,57.17,56,56,57.17,47.83,49Z"/><polygon class="c" points="40 34.5 40 30.5 36.5 28.5 33 30.5 33 34.5 36.5 36.5 40 34.5"/></svg>