<svg id="Provenance-Supply_64" data-name="Provenance-Supply 64" xmlns="http://www.w3.org/2000/svg" width="64" height="64" viewBox="0 0 64 64">
  <rect id="Rectangle_450" data-name="Rectangle 450" width="64" height="64" fill="#fff" opacity="0"/>
  <path id="Path_397" data-name="Path 397" d="M15,45a4,4,0,1,0,4,4A4,4,0,0,0,15,45Z" fill="#fff"/>
  <path id="Path_398" data-name="Path 398" d="M47,20l6-5-6-5Z" fill="#fff"/>
  <path id="Path_399" data-name="Path 399" d="M44,20V37.14L37.14,44H20V26.86L26.86,20Z" fill="#fff"/>
  <path id="Path_400" data-name="Path 400" d="M51.5,45a3.31,3.31,0,0,1-.1.83l1,.24A4.29,4.29,0,0,0,52.5,45V43.94h-1Z" fill="#3d9155"/>
  <path id="Path_401" data-name="Path 401" d="M49.11,48.32l.32,1a4.45,4.45,0,0,0,1.88-1.22l-.73-.68a3.56,3.56,0,0,1-1.47.9Z" fill="#3d9155"/>
  <rect id="Rectangle_451" data-name="Rectangle 451" width="2.02" height="1" transform="translate(41.23 48.5)" fill="#3d9155"/>
  <rect id="Rectangle_452" data-name="Rectangle 452" width="1" height="2.02" transform="translate(51.5 39.91)" fill="#3d9155"/>
  <rect id="Rectangle_453" data-name="Rectangle 453" width="2.02" height="1" transform="translate(45.26 48.5)" fill="#3d9155"/>
  <rect id="Rectangle_454" data-name="Rectangle 454" width="1" height="2.02" transform="translate(11.5 20.03)" fill="#3d9155"/>
  <rect id="Rectangle_455" data-name="Rectangle 455" width="1" height="2.02" transform="translate(11.5 24.06)" fill="#3d9155"/>
  <path id="Path_402" data-name="Path 402" d="M51.5,35.89V37.9h1V35.87Z" fill="#3d9155"/>
  <rect id="Rectangle_456" data-name="Rectangle 456" width="2.02" height="1" transform="translate(33.16 48.5)" fill="#3d9155"/>
  <path id="Path_403" data-name="Path 403" d="M11.5,28.1a4.53,4.53,0,0,0,.61,2.16l.86-.5a3.54,3.54,0,0,1-.47-1.68Z" fill="#3d9155"/>
  <rect id="Rectangle_457" data-name="Rectangle 457" width="2.02" height="1" transform="translate(29.13 48.5)" fill="#3d9155"/>
  <rect id="Rectangle_458" data-name="Rectangle 458" width="2.02" height="1" transform="translate(37.19 48.5)" fill="#3d9155"/>
  <rect id="Rectangle_459" data-name="Rectangle 459" width="2.02" height="1" transform="translate(21.06 48.5)" fill="#3d9155"/>
  <rect id="Rectangle_460" data-name="Rectangle 460" width="2.02" height="1" transform="translate(42.97 14.5)" fill="#3d9155"/>
  <rect id="Rectangle_461" data-name="Rectangle 461" width="2.02" height="1" transform="translate(25.1 48.5)" fill="#3d9155"/>
  <path id="Path_404" data-name="Path 404" d="M46.1,32.5h2l.03-1H46.1Z" fill="#3d9155"/>
  <path id="Path_405" data-name="Path 405" d="M13.44,16.61l-.73-.68a4.37,4.37,0,0,0-1.07,2l1,.24A3.48,3.48,0,0,1,13.44,16.61Z" fill="#3d9155"/>
  <rect id="Rectangle_462" data-name="Rectangle 462" width="2.02" height="1" transform="translate(30.87 14.5)" fill="#3d9155"/>
  <path id="Path_406" data-name="Path 406" d="M49.78,33A3.48,3.48,0,0,1,51,34.22l.86-.51a4.54,4.54,0,0,0-1.58-1.59Z" fill="#3d9155"/>
  <rect id="Rectangle_463" data-name="Rectangle 463" width="2.02" height="1" transform="translate(22.8 14.5)" fill="#3d9155"/>
  <rect id="Rectangle_464" data-name="Rectangle 464" width="2.02" height="1" transform="translate(38.93 14.5)" fill="#3d9155"/>
  <rect id="Rectangle_465" data-name="Rectangle 465" width="2.02" height="1" transform="translate(34.9 14.5)" fill="#3d9155"/>
  <rect id="Rectangle_466" data-name="Rectangle 466" width="2.02" height="1" transform="translate(26.84 14.5)" fill="#3d9155"/>
  <path id="Path_407" data-name="Path 407" d="M15.87,31.5A3.39,3.39,0,0,1,14.2,31l-.51.86a4.49,4.49,0,0,0,2.15.64Z" fill="#3d9155"/>
  <path id="Path_408" data-name="Path 408" d="M16,15.5h.75v-1H16a4.41,4.41,0,0,0-1.4.22l.31.95A3.65,3.65,0,0,1,16,15.5Z" fill="#3d9155"/>
  <rect id="Rectangle_467" data-name="Rectangle 467" width="2.02" height="1" transform="translate(18.77 14.5)" fill="#3d9155"/>
  <path id="Path_409" data-name="Path 409" d="M47,20l6-5-6-5Zm1-7.86L51.44,15,48,17.86Z" fill="#3d9155"/>
  <path id="Path_410" data-name="Path 410" d="M26.86,20,20,26.86V31.5H18v1h2V44H37.14L44,37.14V20Zm9.28,22H22V27.86H36.14Zm.59-16.14H23.83L27.69,22h12.9ZM42,36.31l-3.86,3.86V27.27L42,23.41Z" fill="#3d9155"/>
  <path id="Path_411" data-name="Path 411" d="M15,46a3,3,0,1,1-3,3,3,3,0,0,1,3-3m0-1a4,4,0,1,0,4,4A4,4,0,0,0,15,45Z" fill="#3d9155"/>
</svg>
