<svg id="Proof_Of_Publication_64" data-name="Proof Of Publication 64" xmlns="http://www.w3.org/2000/svg" width="64" height="64" viewBox="0 0 64 64">
  <rect id="Rectangle_404" data-name="Rectangle 404" width="64" height="64" fill="#fff" opacity="0"/>
  <path id="Path_392" data-name="Path 392" d="M46,22l-8-8H18V50H46Z" fill="#fff"/>
  <rect id="Rectangle_405" data-name="Rectangle 405" width="13" height="13" transform="translate(46 2)" fill="#fff"/>
  <path id="Path_393" data-name="Path 393" d="M46,22l-8-8H18V50H46ZM44,48H20V16H37.17L44,22.83Z" fill="#3d9155"/>
  <path id="Path_394" data-name="Path 394" d="M31,19H23v8h8Zm-1,7H24V20h6Z" fill="#3d9155"/>
  <rect id="Rectangle_406" data-name="Rectangle 406" width="1" height="2" transform="translate(52 18)" fill="#3d9155"/>
  <rect id="Rectangle_407" data-name="Rectangle 407" width="2" height="1" transform="translate(29 55)" fill="#3d9155"/>
  <rect id="Rectangle_408" data-name="Rectangle 408" width="2" height="1" transform="translate(37 55)" fill="#3d9155"/>
  <rect id="Rectangle_409" data-name="Rectangle 409" width="2" height="1" transform="translate(33 55)" fill="#3d9155"/>
  <rect id="Rectangle_410" data-name="Rectangle 410" width="2" height="1" transform="translate(41 55)" fill="#3d9155"/>
  <rect id="Rectangle_411" data-name="Rectangle 411" width="2" height="1" transform="translate(45 55)" fill="#3d9155"/>
  <rect id="Rectangle_412" data-name="Rectangle 412" width="2" height="1" transform="translate(25 55)" fill="#3d9155"/>
  <rect id="Rectangle_413" data-name="Rectangle 413" width="2" height="1" transform="translate(17 55)" fill="#3d9155"/>
  <rect id="Rectangle_414" data-name="Rectangle 414" width="2" height="1" transform="translate(15 8)" fill="#3d9155"/>
  <rect id="Rectangle_415" data-name="Rectangle 415" width="2" height="1" transform="translate(49 55)" fill="#3d9155"/>
  <rect id="Rectangle_416" data-name="Rectangle 416" width="2" height="1" transform="translate(13 55)" fill="#3d9155"/>
  <rect id="Rectangle_417" data-name="Rectangle 417" width="2" height="1" transform="translate(21 55)" fill="#3d9155"/>
  <rect id="Rectangle_418" data-name="Rectangle 418" width="1" height="2" transform="translate(52 34)" fill="#3d9155"/>
  <rect id="Rectangle_419" data-name="Rectangle 419" width="1" height="2" transform="translate(52 30)" fill="#3d9155"/>
  <rect id="Rectangle_420" data-name="Rectangle 420" width="1" height="2" transform="translate(52 26)" fill="#3d9155"/>
  <rect id="Rectangle_421" data-name="Rectangle 421" width="1" height="2" transform="translate(52 22)" fill="#3d9155"/>
  <rect id="Rectangle_422" data-name="Rectangle 422" width="1" height="2" transform="translate(52 38)" fill="#3d9155"/>
  <rect id="Rectangle_423" data-name="Rectangle 423" width="1" height="2" transform="translate(52 54)" fill="#3d9155"/>
  <rect id="Rectangle_424" data-name="Rectangle 424" width="2" height="1" transform="translate(43 8)" fill="#3d9155"/>
  <rect id="Rectangle_425" data-name="Rectangle 425" width="1" height="2" transform="translate(52 46)" fill="#3d9155"/>
  <rect id="Rectangle_426" data-name="Rectangle 426" width="1" height="2" transform="translate(52 42)" fill="#3d9155"/>
  <rect id="Rectangle_427" data-name="Rectangle 427" width="1" height="2" transform="translate(52 50)" fill="#3d9155"/>
  <rect id="Rectangle_428" data-name="Rectangle 428" width="2" height="1" transform="translate(23 8)" fill="#3d9155"/>
  <rect id="Rectangle_429" data-name="Rectangle 429" width="2" height="1" transform="translate(19 8)" fill="#3d9155"/>
  <rect id="Rectangle_430" data-name="Rectangle 430" width="2" height="1" transform="translate(11 8)" fill="#3d9155"/>
  <rect id="Rectangle_431" data-name="Rectangle 431" width="1" height="2" transform="translate(11 50)" fill="#3d9155"/>
  <rect id="Rectangle_432" data-name="Rectangle 432" width="1" height="2" transform="translate(11 10)" fill="#3d9155"/>
  <rect id="Rectangle_433" data-name="Rectangle 433" width="2" height="1" transform="translate(35 8)" fill="#3d9155"/>
  <rect id="Rectangle_434" data-name="Rectangle 434" width="2" height="1" transform="translate(27 8)" fill="#3d9155"/>
  <rect id="Rectangle_435" data-name="Rectangle 435" width="2" height="1" transform="translate(39 8)" fill="#3d9155"/>
  <rect id="Rectangle_436" data-name="Rectangle 436" width="2" height="1" transform="translate(31 8)" fill="#3d9155"/>
  <rect id="Rectangle_437" data-name="Rectangle 437" width="1" height="2" transform="translate(11 54)" fill="#3d9155"/>
  <rect id="Rectangle_438" data-name="Rectangle 438" width="1" height="2" transform="translate(11 18)" fill="#3d9155"/>
  <rect id="Rectangle_439" data-name="Rectangle 439" width="1" height="2" transform="translate(11 22)" fill="#3d9155"/>
  <rect id="Rectangle_440" data-name="Rectangle 440" width="1" height="2" transform="translate(11 46)" fill="#3d9155"/>
  <rect id="Rectangle_441" data-name="Rectangle 441" width="1" height="2" transform="translate(11 14)" fill="#3d9155"/>
  <rect id="Rectangle_442" data-name="Rectangle 442" width="1" height="2" transform="translate(11 26)" fill="#3d9155"/>
  <rect id="Rectangle_443" data-name="Rectangle 443" width="1" height="2" transform="translate(11 38)" fill="#3d9155"/>
  <rect id="Rectangle_444" data-name="Rectangle 444" width="1" height="2" transform="translate(11 42)" fill="#3d9155"/>
  <rect id="Rectangle_445" data-name="Rectangle 445" width="1" height="2" transform="translate(11 30)" fill="#3d9155"/>
  <rect id="Rectangle_446" data-name="Rectangle 446" width="1" height="2" transform="translate(11 34)" fill="#3d9155"/>
  <path id="Path_395" data-name="Path 395" d="M59,2H46V15h6v1h1V15h6ZM58,14H47V3H58Z" fill="#3d9155"/>
  <path id="Path_396" data-name="Path 396" d="M48.08,9.04l3.25,3.25,5.59-5.58L55.5,5.29,51.33,9.46,49.5,7.63Z" fill="#3d9155"/>
  <rect id="Rectangle_447" data-name="Rectangle 447" width="18" height="1" transform="translate(23 31)" fill="#3d9155"/>
  <rect id="Rectangle_448" data-name="Rectangle 448" width="18" height="1" transform="translate(23 43)" fill="#3d9155"/>
  <rect id="Rectangle_449" data-name="Rectangle 449" width="18" height="1" transform="translate(23 37)" fill="#3d9155"/>
</svg>
