<svg id="Securing_Blockchains_64" data-name="Securing Blockchains 64" xmlns="http://www.w3.org/2000/svg" width="64" height="64" viewBox="0 0 64 64">
  <path id="Path_412" data-name="Path 412" d="M32,5,11,14V35c0,17.5,21,24,21,24s21-6.5,21-24V14Z" fill="#fff"/>
  <path id="Path_413" data-name="Path 413" d="M32,5,11,14V35c0,17.5,21,24,21,24s21-6.5,21-24V14ZM51,35c0,14.22-15.73,20.69-19,21.88C28.72,55.7,13,49.26,13,35V15.32L32,7.18l19,8.14Z" fill="#3d9155"/>
  <path id="Path_414" data-name="Path 414" d="M45,24V18H39v2.5H35V18H29v2.5H25V18H19v6h2.5v4H19v6h6V31.5h4V34h6V31.5h4V34h2.5v4H39v2.5H35V38H29v2.5H25V38H19v6h6V41.5h4V44h6V41.5h4V44h6V38H42.5V34H45V28H39v2.5H35V28H29v2.5H25V28H22.5V24H25V21.5h4V24h6V21.5h4V24Zm-5-5h4v4H40ZM24,43H20V39h4Zm10,0H30V39h4Zm10-4v4H40V39ZM40,29h4v4H40ZM24,29v4H20V29Zm0-6H20V19h4Zm10,0H30V19h4Z" fill="#3d9155"/>
  <rect id="Rectangle_468" data-name="Rectangle 468" width="64" height="64" fill="#fff" opacity="0"/>
</svg>
