<svg xmlns="http://www.w3.org/2000/svg" width="32.982" height="38.863" viewBox="0 0 32.982 38.863">
  <g id="Group_3348" data-name="Group 3348" transform="translate(-651.037 -360.111)">
    <path id="Path_2024" data-name="Path 2024" d="M668.9,396.11H652.6V361.672h11.94v12.749h12.749v6.848h1.56v-7.957l-13.2-13.2H651.037V397.67H668.9ZM666.1,362.781l10.08,10.08H666.1Z" fill="#3d9155"/>
    <path id="Path_2025" data-name="Path 2025" d="M680.237,393.2c.251-2.239.691-6.182.691-6.217a2.979,2.979,0,0,0-5.935,0c0,.036.436,3.984.683,6.217H671.9v4.453h1.79v1.317h8.529v-1.317h1.8V393.2Zm-2.276-7.368a1.312,1.312,0,0,1,1.4,1.09c-.057.533-.375,3.381-.692,6.211h-1.422c-.229-2.074-.619-5.61-.682-6.21A1.311,1.311,0,0,1,677.961,385.836Zm4.558,10.321h-1.8v1.317h-5.529v-1.317H673.4V394.7h9.117Z" fill="#3d9155"/>
  </g>
</svg>
