<?xml version="1.0" encoding="utf-8"?>
<!-- Svg Vector Icons : http://www.onlinewebfonts.com/icon -->
<!DOCTYPE svg PUBLIC "-//W3C//DTD SVG 1.1//EN" "http://www.w3.org/Graphics/SVG/1.1/DTD/svg11.dtd">
<svg version="1.1" xmlns="http://www.w3.org/2000/svg" xmlns:xlink="http://www.w3.org/1999/xlink" x="0px" y="0px" viewBox="0 0 1000 1000" enable-background="new 0 0 1000 1000" xml:space="preserve">
<metadata> Svg Vector Icons : http://www.onlinewebfonts.com/icon </metadata>
<g><path d="M815.2,499.7c0-42.7-8.3-83.4-24.9-122.3c-16.6-38.8-39-72.4-67.3-100.7c-28.3-28.3-61.8-50.7-100.7-67.3c-38.9-16.6-79.6-24.9-122.3-24.9s-83.4,8.3-122.3,24.9c-38.8,16.6-72.4,39-100.7,67.3c-28.3,28.3-50.7,61.8-67.3,100.7c-16.6,38.9-24.9,79.6-24.9,122.3c0,42.7,8.3,83.4,24.9,122.3c16.6,38.9,39,72.4,67.3,100.7c28.3,28.3,61.8,50.7,100.7,67.3c38.9,16.6,79.6,24.9,122.3,24.9s83.4-8.3,122.3-24.9c38.8-16.6,72.4-39,100.7-67.3c28.3-28.3,50.7-61.8,67.3-100.7C806.9,583.2,815.2,542.4,815.2,499.7z M966.2,651.3c-1.5,5.5-5.1,9.1-10.9,10.9l-159.8,52.5v167.4c0,5.8-2.4,10.6-7.1,14.2c-5.5,3.6-10.8,4.4-15.9,2.2l-159.8-51.4l-98.5,135.7c-3.6,4.7-8.4,7.1-14.2,7.1s-10.6-2.4-14.2-7.1l-98.5-135.7l-159.8,51.4c-5.1,2.2-10.4,1.5-15.9-2.2c-4.7-3.6-7.1-8.4-7.1-14.2V714.8L44.7,662.2c-5.8-1.8-9.5-5.5-10.9-10.9c-1.8-6.2-1.1-11.5,2.2-15.9l98.5-135.7L36,364c-3.3-4.7-4-10-2.2-15.9c1.5-5.5,5.1-9.1,10.9-10.9l159.8-52.5V117.2c0-5.8,2.4-10.6,7.1-14.2c5.5-3.6,10.8-4.4,15.9-2.2l159.8,51.4l98.5-135.7c3.3-4.4,8-6.6,14.2-6.6s10.9,2.2,14.2,6.6l98.5,135.7l159.8-51.4c5.1-2.2,10.4-1.5,15.9,2.2c4.7,3.6,7.1,8.4,7.1,14.2v167.4l159.8,52.5c5.8,1.8,9.5,5.5,10.9,10.9c1.8,5.8,1.1,11.1-2.2,15.9l-98.5,135.7L964,635.4C967.3,639.8,968,645.1,966.2,651.3z"/></g>
</svg>